<?xml version="1.0" standalone="no"?>
<!DOCTYPE svg PUBLIC "-//W3C//DTD SVG 20010904//EN"
 "http://www.w3.org/TR/2001/REC-SVG-20010904/DTD/svg10.dtd">
<svg version="1.0" xmlns="http://www.w3.org/2000/svg"
 width="460.000000pt" height="460.000000pt" viewBox="0 0 460.000000 460.000000"
 preserveAspectRatio="xMidYMid meet">
<metadata>
Created by potrace 1.16, written by Peter Selinger 2001-2019
</metadata>
<g transform="translate(0.000000,460.000000) scale(0.100000,-0.100000)"
fill="#000000" stroke="none">
<path d="M1 3438 c1 -672 5 -1148 10 -1128 8 32 14 625 8 835 -2 87 3 162 15
235 3 19 8 137 10 261 3 148 8 234 16 249 6 12 13 61 16 108 2 48 6 141 9 207
3 66 8 182 12 258 l5 137 -51 0 -51 0 1 -1162z"/>
<path d="M288 4420 c-1 -99 -2 -192 -3 -207 -2 -16 -8 -212 -14 -438 -6 -225
-15 -545 -21 -710 -5 -165 -12 -390 -15 -500 -3 -110 -10 -319 -16 -465 -5
-146 -11 -408 -13 -583 -4 -388 2 -370 -125 -375 l-81 -3 0 -242 0 -243 58
-65 c31 -36 77 -89 102 -119 25 -30 53 -64 63 -74 9 -11 17 -23 17 -28 0 -4 6
-8 14 -8 7 0 21 -11 30 -25 9 -13 31 -40 49 -59 17 -18 40 -46 50 -60 10 -15
22 -24 28 -21 5 4 9 0 9 -7 0 -7 15 -30 33 -50 26 -30 36 -35 51 -26 15 9 16
7 8 -9 -10 -18 7 -46 25 -42 5 1 13 -8 19 -21 8 -15 13 -18 17 -8 5 9 11 7 23
-10 14 -19 25 -22 85 -22 l69 0 0 60 c0 47 -3 60 -15 60 -11 0 -15 11 -15 40
l0 40 55 0 55 0 0 40 0 40 -40 0 -40 0 0 80 c0 64 -3 80 -15 80 -9 0 -15 -10
-15 -26 0 -16 -5 -24 -12 -21 -16 5 -18 79 -4 89 6 4 14 2 18 -5 6 -9 15 -5
31 14 23 25 25 25 177 28 85 1 211 6 280 11 105 7 237 7 300 -1 32 -5 161 11
180 21 11 6 32 29 46 51 13 22 29 37 34 34 6 -3 10 -2 10 3 0 5 25 34 56 65
l56 56 -273 2 c-649 5 -673 6 -706 20 -18 7 -33 17 -33 21 0 4 -36 8 -80 8
-64 0 -80 3 -80 15 0 8 7 15 17 15 15 0 15 1 0 18 -10 10 -17 33 -17 50 0 21
-5 32 -14 32 -23 0 -25 23 -12 136 l12 109 45 3 c37 2 49 8 59 27 7 14 19 25
27 25 9 0 13 14 13 44 0 26 6 48 15 56 13 11 15 8 15 -14 0 -26 13 -35 25 -16
3 6 17 10 31 10 19 0 24 5 24 25 0 25 0 25 99 25 153 0 221 9 221 30 0 10 -9
20 -21 23 -12 3 -18 10 -14 16 8 14 35 14 35 1 0 -5 18 -10 40 -10 43 0 120
26 120 41 0 5 82 9 182 9 157 0 184 -2 200 -17 18 -16 19 -16 13 16 -3 18 -12
46 -20 62 -8 15 -19 60 -25 99 -17 120 19 110 -353 104 -177 -3 -389 -9 -470
-14 -217 -14 -292 -13 -307 5 -7 8 -19 15 -26 15 -15 0 -15 1 7 140 22 141 29
238 24 307 -6 68 -5 74 19 98 14 14 26 30 26 36 0 6 5 7 10 4 6 -3 13 1 16 9
4 11 19 16 50 16 29 0 47 5 50 14 9 23 54 34 169 40 61 3 112 11 113 16 5 13
162 13 162 0 0 -5 18 -10 40 -10 22 0 40 4 40 9 0 15 40 24 120 26 41 2 109 7
150 13 56 8 77 7 82 -1 5 -8 12 0 20 21 7 17 16 32 20 32 4 0 8 9 8 19 0 11 4
23 10 26 13 8 12 -1 -1 -47 -7 -26 -7 -49 0 -70 28 -93 53 -154 70 -173 10
-11 24 -30 30 -42 16 -31 112 -93 144 -93 14 0 30 -8 36 -18 8 -14 22 -17 79
-16 38 1 78 7 90 13 14 7 23 8 27 1 3 -5 31 -10 61 -10 45 0 61 5 101 34 27
19 67 37 91 41 68 11 131 68 176 158 21 42 37 79 37 82 0 2 8 25 19 51 23 53
22 142 -4 212 -15 41 -14 42 5 42 16 0 19 4 14 20 -4 11 -1 36 5 56 36 107
-95 458 -216 578 -8 9 -12 16 -9 16 4 0 -3 9 -16 19 l-24 20 23 21 c13 12 29
19 37 16 7 -2 30 8 50 24 l36 28 -33 7 c-18 4 -36 12 -39 16 -3 5 -37 10 -76
12 -125 4 -78 13 117 22 36 1 78 8 94 14 18 7 94 11 205 11 149 -1 177 1 187
14 6 9 23 16 38 16 27 0 30 -8 26 -57 -1 -17 4 -23 19 -23 12 0 21 -4 21 -10
0 -12 107 -14 114 -1 3 4 69 11 147 14 98 3 144 9 149 18 7 10 18 9 52 -4 47
-18 108 -23 108 -8 0 9 336 6 455 -5 39 -3 77 -12 86 -20 9 -8 19 -11 22 -7 4
3 8 -2 9 -13 0 -10 2 -30 4 -44 17 -134 18 -287 3 -344 -7 -24 -8 -80 -4 -141
7 -95 0 -174 -13 -161 -3 3 -10 2 -16 -3 -12 -9 -123 -22 -236 -26 -242 -10
-373 -17 -520 -29 -91 -8 -187 -14 -215 -15 -44 0 -191 -9 -494 -30 -11 -1 -9
-7 7 -24 12 -13 22 -28 22 -34 0 -20 74 -24 275 -12 289 17 482 27 720 38 116
5 258 12 316 16 91 5 108 3 120 -11 11 -14 11 -18 -6 -30 -10 -8 -28 -15 -39
-15 -12 -1 -34 -3 -51 -5 -16 -2 -104 -9 -195 -15 -91 -7 -168 -16 -171 -21
-4 -6 -117 -9 -280 -8 -400 3 -426 2 -459 -15 -16 -8 -38 -15 -49 -15 -11 0
-32 -5 -48 -11 l-28 -11 24 -19 c18 -15 39 -19 95 -19 44 0 77 -5 85 -12 11
-10 14 -10 18 0 6 17 204 17 221 0 7 -7 52 -16 100 -20 48 -3 122 -10 165 -14
59 -5 77 -4 77 6 0 22 33 39 76 40 32 0 43 4 47 18 6 26 37 32 80 14 24 -9 36
-20 35 -30 -2 -13 10 -18 62 -24 43 -5 66 -4 71 4 7 11 67 36 104 44 15 3 29
-9 53 -42 30 -42 33 -52 32 -113 -1 -36 -1 -115 -1 -175 0 -76 -4 -117 -14
-137 -8 -15 -15 -36 -16 -46 0 -10 -3 -13 -6 -5 -8 20 -20 14 -33 -17 -12 -29
-51 -51 -93 -51 -16 0 -17 -3 -8 -14 10 -12 8 -17 -9 -26 -12 -7 -31 -10 -41
-7 -12 3 -19 0 -19 -10 0 -9 6 -12 18 -9 9 3 28 -2 42 -10 23 -14 20 -15 -46
-9 -69 6 -71 5 -70 -17 1 -16 -5 -23 -17 -23 -10 0 -27 -11 -37 -25 l-19 -25
-338 -4 c-186 -2 -392 -4 -458 -4 -76 0 -123 -4 -127 -11 -4 -6 -8 0 -9 14 0
23 -1 23 -9 5 -5 -11 -9 -15 -10 -10 0 6 -7 1 -15 -9 -13 -18 -15 -7 -15 105
0 168 -8 231 -29 227 -12 -2 -17 -17 -19 -52 -2 -31 0 -46 7 -42 7 5 9 -17 5
-64 -4 -53 -2 -70 8 -70 10 0 9 -3 -1 -9 -13 -8 -13 -12 0 -27 11 -13 11 -18
2 -21 -17 -6 -16 -115 2 -208 l13 -70 2 50 c1 50 18 111 19 72 1 -13 7 -16 26
-13 16 3 25 0 25 -8 0 -16 -24 -38 -33 -30 -9 9 -20 -43 -14 -60 3 -9 14 -12
25 -9 12 3 22 -1 25 -11 5 -13 23 -16 86 -16 87 0 91 -3 91 -77 0 -22 5 -33
14 -33 8 0 16 -7 20 -15 6 -17 48 -15 54 3 2 7 10 12 18 12 10 0 14 12 14 40
0 36 2 40 26 40 16 0 34 10 46 25 16 21 28 25 71 25 29 0 67 4 85 9 45 13 126
-21 119 -50 -7 -28 0 -23 18 11 19 37 32 38 47 5 6 -14 18 -25 27 -25 14 0 14
-2 1 -11 -12 -8 -12 -12 -2 -16 10 -4 10 -8 2 -19 -9 -10 -6 -15 17 -20 15 -4
35 -12 43 -19 8 -7 39 -16 69 -20 l53 -7 -6 -38 c-4 -29 -2 -41 14 -55 10 -9
26 -15 34 -12 9 4 18 2 21 -2 3 -5 -1 -11 -9 -14 -21 -8 -30 -64 -15 -98 11
-29 10 -33 -23 -65 -37 -38 -109 -62 -131 -44 -7 5 -25 21 -41 35 -21 18 -40
25 -72 25 -24 0 -44 5 -44 11 0 5 -5 7 -10 4 -7 -4 -8 -11 -1 -18 5 -7 9 -16
10 -20 0 -15 69 -47 100 -47 40 0 61 -9 61 -27 0 -10 6 -13 16 -9 16 6 44 -9
44 -24 0 -4 -10 -10 -22 -14 -18 -4 -20 -8 -10 -18 9 -9 15 -9 24 0 20 20 33
14 46 -20 13 -36 14 -33 -15 -42 -15 -5 -27 -1 -41 14 -18 19 -23 20 -65 10
-33 -9 -50 -9 -66 -1 -15 9 -27 9 -41 1 -38 -20 -21 -55 31 -65 47 -9 63 -20
56 -38 -4 -12 -33 -14 -174 -13 -107 2 -176 7 -190 14 -29 16 -62 15 -69 -2
-4 -9 -31 -16 -84 -21 -89 -8 -149 0 -131 18 31 31 -4 36 -51 7 -18 -11 -44
-20 -59 -20 -14 0 -30 -5 -35 -10 -11 -11 -202 -16 -211 -6 -3 3 -9 43 -13 90
-7 71 -5 99 13 173 20 79 25 88 47 92 46 6 80 39 80 77 0 20 4 33 10 29 5 -3
32 -8 60 -11 40 -4 50 -2 50 11 0 8 5 15 10 15 16 0 9 89 -8 103 -8 7 -18 11
-21 9 -3 -2 -9 7 -13 20 -6 23 -6 23 -7 -2 -1 -18 -4 -21 -10 -11 -6 9 -8 -4
-7 -35 l1 -49 -40 1 c-34 2 -43 -2 -60 -29 -21 -32 -25 -35 -91 -62 -31 -13
-47 -14 -60 -7 -14 8 -23 7 -36 -4 -15 -14 -17 -13 -24 8 l-8 23 -7 -25 c-7
-24 -7 -24 -8 5 -1 23 -3 27 -11 15 -8 -13 -10 -12 -10 3 0 9 -6 17 -14 17
-20 0 -29 17 -28 54 1 24 -7 38 -36 64 -20 17 -42 32 -49 32 -7 0 -13 5 -13
11 0 5 -4 8 -9 5 -4 -3 -17 1 -27 9 -27 20 -36 18 -29 -5 11 -35 -5 -41 -34
-12 -66 65 -68 66 -96 48 -14 -10 -30 -27 -35 -39 -8 -21 -9 -21 -10 -2 0 17
-2 18 -10 5 -9 -13 -11 -13 -19 -1 -8 12 -12 12 -25 2 -13 -11 -16 -11 -16 2
0 21 -23 37 -39 27 -10 -6 -14 -28 -13 -74 0 -37 -3 -64 -8 -61 -4 3 -15 2
-24 -1 -14 -5 -14 -9 -1 -34 21 -40 20 -41 -24 -17 -62 34 -61 12 2 -46 l56
-52 -25 -50 c-14 -27 -36 -63 -48 -80 -13 -16 -31 -49 -41 -72 -10 -24 -22
-43 -26 -43 -4 0 -12 -14 -18 -31 -14 -40 -15 -112 -1 -104 5 3 10 -3 10 -14
0 -11 5 -23 10 -26 6 -3 10 -21 10 -39 0 -42 21 -69 56 -72 16 -1 21 0 12 3
-24 6 -35 52 -17 64 8 5 17 9 22 9 12 0 8 -38 -5 -43 -8 -3 -5 -6 5 -6 10 -1
25 -8 34 -16 8 -8 20 -12 26 -8 7 4 5 -2 -3 -12 -11 -13 -12 -19 -3 -22 7 -2
10 -10 7 -18 -3 -8 1 -12 12 -12 26 3 31 -32 40 -255 4 -112 8 -216 10 -233 1
-16 3 -36 3 -42 1 -9 20 -13 62 -13 l62 0 -6 143 c-4 78 -10 186 -13 239 -5
70 -4 98 5 98 6 0 11 -7 11 -15 0 -8 4 -15 8 -15 5 0 10 23 11 51 1 28 8 61
16 72 l15 21 0 -22 c0 -13 4 -20 10 -17 6 3 10 -1 10 -9 0 -9 5 -16 11 -16 5
0 7 -5 3 -12 -4 -7 -3 -8 4 -4 7 4 9 18 6 32 -4 17 0 32 12 46 14 16 16 22 6
25 -10 4 -10 10 3 29 14 22 14 25 0 30 -21 8 -19 40 5 64 l20 20 1 -38 c1 -20
5 -50 9 -67 l8 -30 2 35 c1 19 4 71 6 115 2 44 6 86 9 93 3 8 0 10 -6 6 -6 -4
-22 -32 -36 -62 -18 -42 -27 -52 -34 -41 -15 23 -10 45 16 73 13 14 22 32 19
39 -2 7 9 20 26 30 16 10 30 23 30 28 0 6 4 8 9 5 5 -3 11 13 15 35 6 38 75
194 82 186 2 -1 -13 -44 -32 -95 -19 -51 -41 -125 -48 -165 -7 -40 -16 -79
-20 -87 -4 -9 6 -29 26 -51 43 -48 76 -86 162 -189 100 -120 96 -116 107 -99
5 8 4 15 -1 17 -6 2 -10 27 -9 55 1 35 3 44 7 29 8 -28 26 -30 30 -3 2 11 -6
26 -19 35 -13 8 -19 19 -15 23 13 13 236 14 236 1 0 -16 -32 -37 -57 -38 -13
0 -23 -6 -23 -14 0 -22 92 -37 228 -39 110 -2 151 -11 172 -38 3 -4 16 -9 30
-10 21 -4 24 -9 25 -49 l0 -45 64 3 c55 2 68 -1 88 -20 l23 -21 -21 -15 c-11
-8 -30 -12 -41 -9 -48 13 -110 -18 -122 -60 -6 -19 -1 -25 28 -37 19 -8 65
-17 103 -21 73 -8 223 -52 223 -66 0 -5 -4 -9 -10 -9 -5 0 -22 -14 -37 -31
-16 -17 -64 -49 -108 -71 -44 -21 -81 -41 -84 -44 -2 -2 105 -4 238 -4 182 0
240 3 235 12 -5 7 -2 9 7 6 16 -6 62 26 52 36 -3 3 2 15 11 25 10 11 15 25 11
33 -6 10 -5 11 6 0 18 -17 32 -15 25 4 -4 12 -1 14 14 9 11 -4 20 -3 19 2 -4
16 21 63 33 62 10 0 10 -2 1 -6 -7 -2 -13 -9 -13 -15 0 -6 9 -3 20 7 11 10 17
22 13 28 -4 6 -1 7 6 3 8 -5 14 0 18 14 3 11 11 19 18 16 7 -2 19 8 26 22 20
39 37 54 50 46 8 -4 9 -3 5 4 -4 7 -3 12 3 12 13 0 67 50 55 51 -5 0 1 4 14 9
12 5 30 23 40 40 9 16 23 30 30 30 6 0 12 7 12 16 0 8 5 12 10 9 6 -3 10 -2
10 4 0 5 -6 11 -12 13 -9 3 -8 9 4 21 16 16 17 16 21 -5 3 -22 4 -22 12 -4 10
23 42 56 54 56 5 0 14 6 20 14 9 11 8 15 -5 20 -15 6 -16 8 0 24 15 17 16 180
16 2000 l0 1982 -2155 0 -2155 0 -2 -180z m3632 119 c0 -15 7 -19 40 -19 29 0
40 -4 40 -15 0 -11 11 -15 40 -15 22 0 40 -4 40 -10 0 -5 18 -10 40 -10 29 0
40 -4 40 -15 0 -11 -11 -15 -42 -15 -23 0 -39 -3 -35 -6 3 -3 40 -3 81 1 71 7
76 9 76 31 0 31 13 30 38 -1 11 -14 27 -25 36 -25 9 0 19 -8 22 -17 3 -10 13
-32 21 -49 18 -35 15 -161 -5 -172 -6 -4 -15 -19 -21 -32 l-10 -25 0 28 c-1
25 -4 27 -41 27 -29 0 -40 4 -40 15 0 11 -11 15 -40 15 -29 0 -40 -4 -40 -15
0 -9 9 -15 22 -15 44 0 58 -27 58 -112 l0 -78 40 0 c29 0 40 4 40 15 0 8 -4
15 -10 15 -5 0 -10 18 -10 40 0 34 3 40 21 40 20 0 21 -4 16 -54 -4 -42 -1
-59 14 -82 27 -41 24 -89 -6 -122 -14 -15 -25 -21 -25 -15 0 7 -6 10 -12 8 -7
-3 -128 -16 -268 -30 -140 -13 -275 -27 -300 -30 -25 -3 -63 -7 -85 -9 -22 -3
-118 -10 -214 -16 -96 -7 -184 -15 -196 -20 -12 -4 -53 -6 -91 -4 -38 2 -118
-2 -179 -8 -60 -5 -146 -12 -190 -14 -44 -2 -116 -6 -160 -8 -44 -2 -87 -7
-95 -10 -8 -3 -62 -7 -120 -9 -172 -6 -645 -40 -650 -47 -8 -9 -160 -6 -160 3
0 5 -11 6 -24 3 -14 -3 -107 -8 -208 -11 -101 -3 -223 -12 -273 -20 -54 -9
-140 -14 -217 -12 -118 2 -148 7 -115 20 7 3 5 6 -5 6 -21 1 -21 -2 -8 79 11
67 33 112 55 112 8 0 22 11 33 25 11 14 25 25 31 25 6 0 11 7 11 15 0 11 -12
15 -45 15 -61 0 -85 24 -85 85 0 25 4 45 9 45 5 0 12 11 15 25 4 14 11 25 16
25 6 0 10 11 10 24 0 18 9 27 40 40 22 9 40 21 40 27 0 15 84 99 99 99 7 0 11
-19 11 -48 0 -26 5 -53 12 -60 9 -9 9 -12 0 -12 -9 0 -9 -5 0 -20 21 -33 38
-24 38 20 0 22 5 40 10 40 6 0 10 6 10 14 0 29 30 46 82 46 46 0 53 3 85 40
41 46 49 47 105 20 49 -23 105 -26 110 -6 5 21 78 -10 78 -33 0 -40 51 -55 72
-21 7 11 24 20 38 20 18 1 33 13 53 42 22 32 31 38 38 27 6 -10 9 -10 9 -1 0
9 30 12 118 12 74 0 122 4 129 11 7 7 64 12 156 13 127 1 147 3 166 20 12 11
21 15 21 11 0 -5 13 4 29 19 33 31 46 34 244 42 70 3 127 9 127 13 0 15 75 30
153 32 42 0 87 1 100 1 12 1 48 -3 80 -7 39 -5 61 -4 65 2 10 16 162 29 162
14 0 -15 77 -14 83 2 4 10 7 10 18 0 14 -14 139 -18 139 -5 0 7 174 32 222 32
10 0 27 -10 38 -22 l21 -23 21 25 c17 21 27 25 59 22 30 -3 39 -8 39 -23z
m-2160 -1139 c-6 -4 9 -12 37 -19 103 -27 126 -36 129 -52 2 -14 -7 -16 -65
-13 -106 7 -311 31 -318 38 -10 10 11 26 42 32 16 3 33 8 39 11 13 8 128 20
140 15 4 -3 3 -8 -4 -12z m-200 1 c0 -5 -8 -11 -17 -13 -10 -3 -25 -17 -33
-32 -12 -23 -12 -29 0 -36 8 -5 17 -7 21 -4 4 2 20 -3 35 -11 16 -8 39 -15 51
-15 25 0 137 -40 172 -62 23 -13 75 -111 84 -158 3 -14 8 -36 12 -50 5 -19 4
-22 -4 -10 -13 19 -3 -55 11 -83 13 -25 1 -72 -28 -114 -13 -20 -24 -40 -24
-46 0 -5 -10 -30 -22 -54 -18 -36 -24 -41 -29 -26 -6 15 -8 14 -8 -7 -1 -18
-4 -21 -10 -11 -9 14 -196 12 -746 -7 -213 -8 -298 -3 -318 17 -15 15 13 103
38 123 32 25 32 51 -1 77 -34 27 -44 69 -43 176 1 63 4 81 9 60 8 -30 8 -30 9
8 1 27 5 37 17 37 14 0 16 9 12 50 -6 61 10 92 36 71 11 -9 16 -10 16 -2 0 15
77 14 83 -1 5 -16 47 18 47 39 0 11 18 13 90 11 60 -2 93 1 98 8 4 7 41 15 82
19 41 4 93 15 116 26 29 14 59 19 107 17 37 -1 67 -5 67 -10 0 -4 5 -8 11 -8
5 0 7 5 3 12 -5 8 -2 9 9 5 10 -3 17 -2 17 3 0 6 7 10 15 10 8 0 15 -4 15 -9z
m630 -2406 c0 -77 -4 -115 -11 -115 -13 0 -68 57 -62 64 3 3 2 10 -2 16 -5 8
-11 8 -21 -1 -17 -14 -19 -69 -2 -69 18 0 48 -31 48 -51 0 -10 9 -24 19 -31
19 -13 24 -32 22 -77 -1 -24 -1 -24 -21 -6 -11 10 -20 26 -18 34 3 22 -11 61
-23 61 -5 0 -10 15 -10 33 -1 30 -2 30 -12 -12 -8 -33 -7 -51 2 -75 7 -17 13
-39 13 -48 -1 -10 4 -18 9 -18 5 0 4 -6 -3 -13 -21 -23 -33 1 -45 88 -12 87
-13 167 -2 175 4 3 9 12 11 20 6 26 22 39 36 28 8 -7 12 -7 12 2 0 18 44 110
52 110 5 0 8 -52 8 -115z"/>
</g>
</svg>
